<svg width="35" height="26" viewBox="0 0 35 26" fill="none" xmlns="http://www.w3.org/2000/svg">
<path d="M0 11.8182C0 5.29118 5.40346 0 12.069 0H22.931C29.5965 0 35 5.29118 35 11.8182V14.1818C35 20.7088 29.5965 26 22.931 26H12.069C5.40346 26 0 20.7088 0 14.1818V11.8182Z" fill="#4B8EB0"/>
<path d="M8.44828 9.45455C8.44828 8.14915 9.52897 7.09091 10.8621 7.09091H25.3448C26.6779 7.09091 27.7586 8.14915 27.7586 9.45455C27.7586 10.7599 26.6779 11.8182 25.3448 11.8182H10.8621C9.52897 11.8182 8.44828 10.7599 8.44828 9.45455Z" fill="white"/>
<path d="M8.44828 9.45455C8.44828 8.14915 9.52897 7.09091 10.8621 7.09091H25.3448C26.6779 7.09091 27.7586 8.14915 27.7586 9.45455C27.7586 10.7599 26.6779 11.8182 25.3448 11.8182H10.8621C9.52897 11.8182 8.44828 10.7599 8.44828 9.45455Z" fill="white"/>
<path d="M8.44828 9.45455C8.44828 8.14915 9.52897 7.09091 10.8621 7.09091H25.3448C26.6779 7.09091 27.7586 8.14915 27.7586 9.45455C27.7586 10.7599 26.6779 11.8182 25.3448 11.8182H10.8621C9.52897 11.8182 8.44828 10.7599 8.44828 9.45455Z" fill="white"/>
<path d="M8.44828 9.45455C8.44828 8.14915 9.52897 7.09091 10.8621 7.09091H25.3448C26.6779 7.09091 27.7586 8.14915 27.7586 9.45455C27.7586 10.7599 26.6779 11.8182 25.3448 11.8182H10.8621C9.52897 11.8182 8.44828 10.7599 8.44828 9.45455Z" fill="white"/>
<path d="M8.44828 9.45455C8.44828 8.14915 9.52897 7.09091 10.8621 7.09091H25.3448C26.6779 7.09091 27.7586 8.14915 27.7586 9.45455C27.7586 10.7599 26.6779 11.8182 25.3448 11.8182H10.8621C9.52897 11.8182 8.44828 10.7599 8.44828 9.45455Z" fill="white"/>
<path d="M8.44828 16.5455C8.44828 15.2401 9.52897 14.1818 10.8621 14.1818H19.3103C20.6434 14.1818 21.7241 15.2401 21.7241 16.5455C21.7241 17.8509 20.6434 18.9091 19.3103 18.9091H10.8621C9.52897 18.9091 8.44828 17.8509 8.44828 16.5455Z" fill="white"/>
</svg>
